<svg xmlns="http://www.w3.org/2000/svg" xmlns:xlink="http://www.w3.org/1999/xlink" version="1.1" id="Layer_1" x="0px" y="0px" width="100px" height="100px" viewBox="0 0 100 100" enable-background="new 0 0 100 100" xml:space="preserve">
<path fill-rule="evenodd" clip-rule="evenodd" d="M85.355,14.645c-19.527-19.525-51.184-19.525-70.711,0  c-19.526,19.527-19.526,51.184,0,70.711c19.527,19.525,51.184,19.525,70.711,0C104.882,65.828,104.882,34.172,85.355,14.645z   M83.035,50.634c0,5.251-4.256,9.506-9.507,9.506H26.472c-5.251,0-9.507-4.255-9.507-9.506v-1.268c0-5.251,4.256-9.506,9.507-9.506  h47.057c5.251,0,9.507,4.255,9.507,9.506V50.634z"/>
</svg>